# xmcd CD database file
#
# Track frame offsets:
#	182
#	14557
#	26940
#	39867
#	55012
#	69317
#	84365
#	95967
#	109250
#	123917
#	138140
#	153937
#	168105
#	179615
#	190757
#	205405
#	219112
#	233092
#	247170
#	261527
#	273070
#	287647
#	302582
#	317017
#	331622
#
# Disc length: 4561 seconds
#
# Revision: 2
# Processed by: cddbd v1.5.2PL0 Copyright (c) Steve Scherf et al.
# Submitted via: CDex 1.70beta2
#
DISCID=5a11cf19
DTITLE=Memphis Jug Band - Volume 3 - Frog
DYEAR=1930
DGENRE=Blues
TTITLE0=Everybody's talking about Sadie Green
TTITLE1=Oh, Ambulance Man
TTITLE2=Cocaine habit blues
TTITLE3=Jim Strainer blues
TTITLE4=Cave man blues
TTITLE5=Fourth Street Mess Around
TTITLE6=It won't act right
TTITLE7=Bumble bee blues
TTITLE8=Meningitis blues
TTITLE9=Aunt Caroline Dyer blues
TTITLE10=Stonewall blues
TTITLE11=Spider's nest blues
TTITLE12=Papa's got your water on
TTITLE13=Going back to Memphis
TTITLE14=He's in the jailhouse now
TTITLE15=Got a letter from my darlin'
TTITLE16=Round and round
TTITLE17=You may leave but this will bring you back
TTITLE18=Move that thing
TTITLE19=You got me rollin'
TTITLE20=Sun brimmers blues
TTITLE21=Stingy woman
TTITLE22=Newport news
TTITLE23=Snitchin' Gambler blues
TTITLE24=Lindberg Hop
EXTD=YEAR: 1930
EXTT0=
EXTT1=
EXTT2=
EXTT3=
EXTT4=
EXTT5=
EXTT6=
EXTT7=
EXTT8=
EXTT9=
EXTT10=
EXTT11=
EXTT12=
EXTT13=
EXTT14=
EXTT15=
EXTT16=
EXTT17=
EXTT18=
EXTT19=
EXTT20=
EXTT21=
EXTT22=
EXTT23=
EXTT24=
PLAYORDER=
